<mxfile host="app.diagrams.net" agent="Mozilla/5.0 (Windows NT 10.0; Win64; x64) AppleWebKit/537.36 (KHTML, like Gecko) Chrome/131.0.0.0 Safari/537.36" version="26.0.5" pages="3">
  <diagram id="C5RBs43oDa-KdzZeNtuy" name="Page-1">
    <mxGraphModel grid="1" page="1" gridSize="10" guides="1" tooltips="1" connect="1" arrows="1" fold="1" pageScale="1" pageWidth="827" pageHeight="1169" math="0" shadow="0">
      <root>
        <mxCell id="WIyWlLk6GJQsqaUBKTNV-0" />
        <mxCell id="WIyWlLk6GJQsqaUBKTNV-1" parent="WIyWlLk6GJQsqaUBKTNV-0" />
        <mxCell id="648YFRSJb_CvgtLpKrHi-7" style="edgeStyle=orthogonalEdgeStyle;rounded=0;orthogonalLoop=1;jettySize=auto;html=1;entryX=0;entryY=0.5;entryDx=0;entryDy=0;" edge="1" parent="WIyWlLk6GJQsqaUBKTNV-1" source="kTVqxZJLzM94zwiJcIAl-195" target="K8DS5-A-OFjsoAHDhbLf-3">
          <mxGeometry relative="1" as="geometry" />
        </mxCell>
        <mxCell id="kTVqxZJLzM94zwiJcIAl-195" value="" style="ellipse;html=1;shape=startState;fillColor=#000000;strokeColor=#ff0000;" vertex="1" parent="WIyWlLk6GJQsqaUBKTNV-1">
          <mxGeometry x="50" y="154" width="30" height="30" as="geometry" />
        </mxCell>
        <mxCell id="kTVqxZJLzM94zwiJcIAl-206" style="edgeStyle=orthogonalEdgeStyle;rounded=0;orthogonalLoop=1;jettySize=auto;html=1;entryX=0;entryY=0.5;entryDx=0;entryDy=0;" edge="1" parent="WIyWlLk6GJQsqaUBKTNV-1" source="K8DS5-A-OFjsoAHDhbLf-3" target="648YFRSJb_CvgtLpKrHi-8">
          <mxGeometry relative="1" as="geometry">
            <mxPoint x="395" y="169" as="targetPoint" />
          </mxGeometry>
        </mxCell>
        <mxCell id="K8DS5-A-OFjsoAHDhbLf-3" value="Apertura ChatBot" style="rounded=1;whiteSpace=wrap;html=1;arcSize=40;fontColor=#000000;fillColor=#ffffc0;strokeColor=#ff0000;" vertex="1" parent="WIyWlLk6GJQsqaUBKTNV-1">
          <mxGeometry x="200" y="149" width="120" height="40" as="geometry" />
        </mxCell>
        <mxCell id="kTVqxZJLzM94zwiJcIAl-207" value="Utente effettua&amp;nbsp;&lt;div&gt;una&amp;nbsp;&lt;span style=&quot;background-color: initial;&quot;&gt;richiesta&amp;nbsp;&lt;/span&gt;&lt;/div&gt;" style="text;html=1;align=center;verticalAlign=middle;resizable=0;points=[];autosize=1;strokeColor=none;fillColor=none;" vertex="1" parent="WIyWlLk6GJQsqaUBKTNV-1">
          <mxGeometry x="520" y="130" width="110" height="40" as="geometry" />
        </mxCell>
        <mxCell id="kTVqxZJLzM94zwiJcIAl-221" style="edgeStyle=orthogonalEdgeStyle;rounded=0;orthogonalLoop=1;jettySize=auto;html=1;" edge="1" parent="WIyWlLk6GJQsqaUBKTNV-1">
          <mxGeometry relative="1" as="geometry">
            <mxPoint x="740" y="229.55" as="targetPoint" />
            <mxPoint x="680" y="229.55" as="sourcePoint" />
          </mxGeometry>
        </mxCell>
        <mxCell id="648YFRSJb_CvgtLpKrHi-13" value="" style="edgeStyle=orthogonalEdgeStyle;rounded=0;orthogonalLoop=1;jettySize=auto;html=1;" edge="1" parent="WIyWlLk6GJQsqaUBKTNV-1" source="kTVqxZJLzM94zwiJcIAl-210" target="kTVqxZJLzM94zwiJcIAl-217">
          <mxGeometry relative="1" as="geometry" />
        </mxCell>
        <mxCell id="kTVqxZJLzM94zwiJcIAl-210" value="Elaborazione Risposta" style="rounded=1;whiteSpace=wrap;html=1;arcSize=40;fontColor=#000000;fillColor=#ffffc0;strokeColor=#ff0000;" vertex="1" parent="WIyWlLk6GJQsqaUBKTNV-1">
          <mxGeometry x="560" y="210" width="120" height="40" as="geometry" />
        </mxCell>
        <mxCell id="648YFRSJb_CvgtLpKrHi-12" style="edgeStyle=orthogonalEdgeStyle;rounded=0;orthogonalLoop=1;jettySize=auto;html=1;exitX=1;exitY=0.5;exitDx=0;exitDy=0;entryX=0.5;entryY=0;entryDx=0;entryDy=0;" edge="1" parent="WIyWlLk6GJQsqaUBKTNV-1" source="648YFRSJb_CvgtLpKrHi-8" target="kTVqxZJLzM94zwiJcIAl-210">
          <mxGeometry relative="1" as="geometry" />
        </mxCell>
        <mxCell id="K8DS5-A-OFjsoAHDhbLf-13" style="edgeStyle=orthogonalEdgeStyle;rounded=0;orthogonalLoop=1;jettySize=auto;html=1;entryX=0;entryY=0.5;entryDx=0;entryDy=0;" edge="1" parent="WIyWlLk6GJQsqaUBKTNV-1" source="648YFRSJb_CvgtLpKrHi-8" target="K8DS5-A-OFjsoAHDhbLf-11">
          <mxGeometry relative="1" as="geometry">
            <Array as="points">
              <mxPoint x="460" y="60" />
            </Array>
          </mxGeometry>
        </mxCell>
        <mxCell id="648YFRSJb_CvgtLpKrHi-8" value="Attesa Input Utente" style="rounded=1;whiteSpace=wrap;html=1;arcSize=40;fontColor=#000000;fillColor=#ffffc0;strokeColor=#ff0000;" vertex="1" parent="WIyWlLk6GJQsqaUBKTNV-1">
          <mxGeometry x="400" y="149" width="120" height="40" as="geometry" />
        </mxCell>
        <mxCell id="648YFRSJb_CvgtLpKrHi-14" style="edgeStyle=orthogonalEdgeStyle;rounded=0;orthogonalLoop=1;jettySize=auto;html=1;" edge="1" parent="WIyWlLk6GJQsqaUBKTNV-1" source="kTVqxZJLzM94zwiJcIAl-217">
          <mxGeometry relative="1" as="geometry">
            <mxPoint x="460" y="190" as="targetPoint" />
          </mxGeometry>
        </mxCell>
        <mxCell id="kTVqxZJLzM94zwiJcIAl-217" value="Visualizzazione risposta" style="rounded=1;whiteSpace=wrap;html=1;arcSize=40;fontColor=#000000;fillColor=#ffffc0;strokeColor=#ff0000;" vertex="1" parent="WIyWlLk6GJQsqaUBKTNV-1">
          <mxGeometry x="560" y="310" width="120" height="40" as="geometry" />
        </mxCell>
        <mxCell id="648YFRSJb_CvgtLpKrHi-10" value="Errore Generazione Risposta" style="rounded=1;whiteSpace=wrap;html=1;arcSize=40;fontColor=#000000;fillColor=#ffffc0;strokeColor=#ff0000;" vertex="1" parent="WIyWlLk6GJQsqaUBKTNV-1">
          <mxGeometry x="740" y="210" width="120" height="40" as="geometry" />
        </mxCell>
        <mxCell id="K8DS5-A-OFjsoAHDhbLf-16" value="" style="edgeStyle=orthogonalEdgeStyle;rounded=0;orthogonalLoop=1;jettySize=auto;html=1;" edge="1" parent="WIyWlLk6GJQsqaUBKTNV-1" source="648YFRSJb_CvgtLpKrHi-11" target="K8DS5-A-OFjsoAHDhbLf-15">
          <mxGeometry relative="1" as="geometry" />
        </mxCell>
        <mxCell id="648YFRSJb_CvgtLpKrHi-11" value="Conversazione Terminata" style="rounded=1;whiteSpace=wrap;html=1;arcSize=40;fontColor=#000000;fillColor=#ffffc0;strokeColor=#ff0000;" vertex="1" parent="WIyWlLk6GJQsqaUBKTNV-1">
          <mxGeometry x="560" y="540" width="120" height="40" as="geometry" />
        </mxCell>
        <mxCell id="K8DS5-A-OFjsoAHDhbLf-5" value="Utente clicca su&amp;nbsp;&lt;div&gt;icona &quot;Chatbot&quot;&lt;/div&gt;" style="text;html=1;align=center;verticalAlign=middle;resizable=0;points=[];autosize=1;strokeColor=none;fillColor=none;" vertex="1" parent="WIyWlLk6GJQsqaUBKTNV-1">
          <mxGeometry x="90" y="130" width="110" height="40" as="geometry" />
        </mxCell>
        <mxCell id="kTVqxZJLzM94zwiJcIAl-224" style="edgeStyle=orthogonalEdgeStyle;rounded=0;orthogonalLoop=1;jettySize=auto;html=1;exitX=0.5;exitY=1;exitDx=0;exitDy=0;entryX=0.5;entryY=0;entryDx=0;entryDy=0;" edge="1" parent="WIyWlLk6GJQsqaUBKTNV-1" source="kTVqxZJLzM94zwiJcIAl-223" target="648YFRSJb_CvgtLpKrHi-11">
          <mxGeometry relative="1" as="geometry" />
        </mxCell>
        <mxCell id="kTVqxZJLzM94zwiJcIAl-223" value="Chiusura conversazione" style="rounded=1;whiteSpace=wrap;html=1;arcSize=40;fontColor=#000000;fillColor=#ffffc0;strokeColor=#ff0000;" vertex="1" parent="WIyWlLk6GJQsqaUBKTNV-1">
          <mxGeometry x="560" y="430" width="120" height="40" as="geometry" />
        </mxCell>
        <mxCell id="kTVqxZJLzM94zwiJcIAl-222" style="edgeStyle=orthogonalEdgeStyle;rounded=0;orthogonalLoop=1;jettySize=auto;html=1;entryX=0.498;entryY=-0.068;entryDx=0;entryDy=0;entryPerimeter=0;" edge="1" parent="WIyWlLk6GJQsqaUBKTNV-1" source="kTVqxZJLzM94zwiJcIAl-217" target="kTVqxZJLzM94zwiJcIAl-223">
          <mxGeometry relative="1" as="geometry">
            <mxPoint x="620" y="420" as="targetPoint" />
          </mxGeometry>
        </mxCell>
        <mxCell id="K8DS5-A-OFjsoAHDhbLf-9" value="L&#39;utente non necessita di&amp;nbsp;&lt;div&gt;ulteriore supporto&amp;nbsp;&lt;/div&gt;" style="text;html=1;align=center;verticalAlign=middle;resizable=0;points=[];autosize=1;strokeColor=none;fillColor=none;" vertex="1" parent="WIyWlLk6GJQsqaUBKTNV-1">
          <mxGeometry x="620" y="360" width="160" height="40" as="geometry" />
        </mxCell>
        <mxCell id="K8DS5-A-OFjsoAHDhbLf-10" value="Utente necessita&lt;div&gt;di ulteriore supporto&lt;/div&gt;" style="text;html=1;align=center;verticalAlign=middle;resizable=0;points=[];autosize=1;strokeColor=none;fillColor=none;" vertex="1" parent="WIyWlLk6GJQsqaUBKTNV-1">
          <mxGeometry x="440" y="330" width="130" height="40" as="geometry" />
        </mxCell>
        <mxCell id="K8DS5-A-OFjsoAHDhbLf-12" style="edgeStyle=orthogonalEdgeStyle;rounded=0;orthogonalLoop=1;jettySize=auto;html=1;entryX=1;entryY=0.5;entryDx=0;entryDy=0;" edge="1" parent="WIyWlLk6GJQsqaUBKTNV-1" source="K8DS5-A-OFjsoAHDhbLf-11" target="kTVqxZJLzM94zwiJcIAl-217">
          <mxGeometry relative="1" as="geometry">
            <Array as="points">
              <mxPoint x="930" y="60" />
              <mxPoint x="930" y="330" />
            </Array>
          </mxGeometry>
        </mxCell>
        <mxCell id="K8DS5-A-OFjsoAHDhbLf-11" value="Risposta Statica" style="rounded=1;whiteSpace=wrap;html=1;arcSize=40;fontColor=#000000;fillColor=#ffffc0;strokeColor=#ff0000;" vertex="1" parent="WIyWlLk6GJQsqaUBKTNV-1">
          <mxGeometry x="740" y="40" width="120" height="40" as="geometry" />
        </mxCell>
        <mxCell id="K8DS5-A-OFjsoAHDhbLf-14" value="Utente selezione tra una raccolta &lt;span style=&quot;background-color: initial;&quot;&gt;di domande&amp;nbsp;&lt;/span&gt;&lt;div&gt;&lt;span style=&quot;background-color: initial;&quot;&gt;piÃ¹ frequenti organizzate&amp;nbsp;&lt;/span&gt;&lt;span style=&quot;background-color: initial;&quot;&gt;per ambito&lt;/span&gt;&lt;/div&gt;" style="text;html=1;align=center;verticalAlign=middle;resizable=0;points=[];autosize=1;strokeColor=none;fillColor=none;" vertex="1" parent="WIyWlLk6GJQsqaUBKTNV-1">
          <mxGeometry x="460" y="20" width="270" height="40" as="geometry" />
        </mxCell>
        <mxCell id="K8DS5-A-OFjsoAHDhbLf-15" value="" style="ellipse;html=1;shape=endState;fillColor=#000000;strokeColor=#ff0000;" vertex="1" parent="WIyWlLk6GJQsqaUBKTNV-1">
          <mxGeometry x="605" y="620" width="30" height="30" as="geometry" />
        </mxCell>
      </root>
    </mxGraphModel>
  </diagram>
  <diagram id="CgM7tzjZyPI4GKV35D-j" name="Pagina-2">
    <mxGraphModel grid="1" page="1" gridSize="10" guides="1" tooltips="1" connect="1" arrows="1" fold="1" pageScale="1" pageWidth="827" pageHeight="1169" math="0" shadow="0">
      <root>
        <mxCell id="0" />
        <mxCell id="1" parent="0" />
        <mxCell id="szJHb10VolOJ5Ffph_UI-1" style="edgeStyle=orthogonalEdgeStyle;rounded=0;orthogonalLoop=1;jettySize=auto;html=1;entryX=0;entryY=0.5;entryDx=0;entryDy=0;" edge="1" parent="1" source="szJHb10VolOJ5Ffph_UI-2" target="szJHb10VolOJ5Ffph_UI-4">
          <mxGeometry relative="1" as="geometry" />
        </mxCell>
        <mxCell id="szJHb10VolOJ5Ffph_UI-2" value="" style="ellipse;html=1;shape=startState;fillColor=#000000;strokeColor=#ff0000;" vertex="1" parent="1">
          <mxGeometry x="50" y="154" width="30" height="30" as="geometry" />
        </mxCell>
        <mxCell id="szJHb10VolOJ5Ffph_UI-33" value="" style="edgeStyle=orthogonalEdgeStyle;rounded=0;orthogonalLoop=1;jettySize=auto;html=1;" edge="1" parent="1" source="szJHb10VolOJ5Ffph_UI-4" target="szJHb10VolOJ5Ffph_UI-29">
          <mxGeometry relative="1" as="geometry" />
        </mxCell>
        <mxCell id="szJHb10VolOJ5Ffph_UI-4" value="Ricezione mail" style="rounded=1;whiteSpace=wrap;html=1;arcSize=40;fontColor=#000000;fillColor=#ffffc0;strokeColor=#ff0000;" vertex="1" parent="1">
          <mxGeometry x="210" y="149" width="120" height="40" as="geometry" />
        </mxCell>
        <mxCell id="szJHb10VolOJ5Ffph_UI-17" value="invio notifica&lt;div&gt;via email&lt;/div&gt;" style="text;html=1;align=center;verticalAlign=middle;resizable=0;points=[];autosize=1;strokeColor=none;fillColor=none;" vertex="1" parent="1">
          <mxGeometry x="90" y="130" width="90" height="40" as="geometry" />
        </mxCell>
        <mxCell id="szJHb10VolOJ5Ffph_UI-28" value="" style="ellipse;html=1;shape=endState;fillColor=#000000;strokeColor=#ff0000;" vertex="1" parent="1">
          <mxGeometry x="716" y="154" width="30" height="30" as="geometry" />
        </mxCell>
        <mxCell id="szJHb10VolOJ5Ffph_UI-34" style="edgeStyle=orthogonalEdgeStyle;rounded=0;orthogonalLoop=1;jettySize=auto;html=1;exitX=1;exitY=0.5;exitDx=0;exitDy=0;entryX=0;entryY=0.5;entryDx=0;entryDy=0;" edge="1" parent="1" source="szJHb10VolOJ5Ffph_UI-29" target="szJHb10VolOJ5Ffph_UI-28">
          <mxGeometry relative="1" as="geometry" />
        </mxCell>
        <mxCell id="szJHb10VolOJ5Ffph_UI-29" value="Apertura email" style="rounded=1;whiteSpace=wrap;html=1;arcSize=40;fontColor=#000000;fillColor=#ffffc0;strokeColor=#ff0000;" vertex="1" parent="1">
          <mxGeometry x="500" y="149" width="120" height="40" as="geometry" />
        </mxCell>
        <mxCell id="szJHb10VolOJ5Ffph_UI-32" value="notifica ricezione&lt;div&gt;email&lt;/div&gt;" style="text;html=1;align=center;verticalAlign=middle;resizable=0;points=[];autosize=1;strokeColor=none;fillColor=none;" vertex="1" parent="1">
          <mxGeometry x="358" y="130" width="110" height="40" as="geometry" />
        </mxCell>
      </root>
    </mxGraphModel>
  </diagram>
  <diagram id="NgeXjwEeB-FhVtrB4Myi" name="Pagina-3">
    <mxGraphModel grid="1" page="1" gridSize="10" guides="1" tooltips="1" connect="1" arrows="1" fold="1" pageScale="1" pageWidth="827" pageHeight="1169" math="0" shadow="0">
      <root>
        <mxCell id="0" />
        <mxCell id="1" parent="0" />
        <mxCell id="To-I92X-JVq-BLbENrV4-1" style="edgeStyle=orthogonalEdgeStyle;rounded=0;orthogonalLoop=1;jettySize=auto;html=1;entryX=0;entryY=0.5;entryDx=0;entryDy=0;" edge="1" parent="1" source="To-I92X-JVq-BLbENrV4-2" target="To-I92X-JVq-BLbENrV4-4">
          <mxGeometry relative="1" as="geometry" />
        </mxCell>
        <mxCell id="To-I92X-JVq-BLbENrV4-2" value="" style="ellipse;html=1;shape=startState;fillColor=#000000;strokeColor=#000000;" vertex="1" parent="1">
          <mxGeometry x="20" y="154" width="30" height="30" as="geometry" />
        </mxCell>
        <mxCell id="To-I92X-JVq-BLbENrV4-3" value="" style="edgeStyle=orthogonalEdgeStyle;rounded=0;orthogonalLoop=1;jettySize=auto;html=1;" edge="1" parent="1" source="To-I92X-JVq-BLbENrV4-4" target="To-I92X-JVq-BLbENrV4-8">
          <mxGeometry relative="1" as="geometry" />
        </mxCell>
        <mxCell id="To-I92X-JVq-BLbENrV4-4" value="Creato" style="rounded=1;whiteSpace=wrap;html=1;arcSize=40;fontColor=#000000;fillColor=none;strokeColor=#000000;" vertex="1" parent="1">
          <mxGeometry x="210" y="149" width="120" height="40" as="geometry" />
        </mxCell>
        <mxCell id="To-I92X-JVq-BLbENrV4-6" value="" style="ellipse;html=1;shape=endState;fillColor=#000000;strokeColor=#000000;" vertex="1" parent="1">
          <mxGeometry x="750" y="154" width="30" height="30" as="geometry" />
        </mxCell>
        <mxCell id="To-I92X-JVq-BLbENrV4-12" style="edgeStyle=orthogonalEdgeStyle;rounded=0;orthogonalLoop=1;jettySize=auto;html=1;entryX=1;entryY=0.5;entryDx=0;entryDy=0;" edge="1" parent="1" source="To-I92X-JVq-BLbENrV4-8" target="To-I92X-JVq-BLbENrV4-10">
          <mxGeometry relative="1" as="geometry">
            <Array as="points">
              <mxPoint x="540" y="300" />
            </Array>
          </mxGeometry>
        </mxCell>
        <mxCell id="To-I92X-JVq-BLbENrV4-14" value="" style="edgeStyle=orthogonalEdgeStyle;rounded=0;orthogonalLoop=1;jettySize=auto;html=1;entryX=-0.076;entryY=0.503;entryDx=0;entryDy=0;entryPerimeter=0;" edge="1" parent="1" source="To-I92X-JVq-BLbENrV4-8" target="To-I92X-JVq-BLbENrV4-6">
          <mxGeometry relative="1" as="geometry">
            <mxPoint x="745" y="169" as="targetPoint" />
          </mxGeometry>
        </mxCell>
        <mxCell id="To-I92X-JVq-BLbENrV4-17" value="" style="edgeStyle=orthogonalEdgeStyle;rounded=0;orthogonalLoop=1;jettySize=auto;html=1;" edge="1" parent="1" source="To-I92X-JVq-BLbENrV4-8" target="To-I92X-JVq-BLbENrV4-16">
          <mxGeometry relative="1" as="geometry" />
        </mxCell>
        <mxCell id="To-I92X-JVq-BLbENrV4-8" value="Caricato" style="rounded=1;whiteSpace=wrap;html=1;arcSize=40;fontColor=#000000;fillColor=none;strokeColor=#000000;" vertex="1" parent="1">
          <mxGeometry x="480" y="149" width="120" height="40" as="geometry" />
        </mxCell>
        <mxCell id="To-I92X-JVq-BLbENrV4-11" style="edgeStyle=orthogonalEdgeStyle;rounded=0;orthogonalLoop=1;jettySize=auto;html=1;" edge="1" parent="1" source="To-I92X-JVq-BLbENrV4-10">
          <mxGeometry relative="1" as="geometry">
            <mxPoint x="270" y="190" as="targetPoint" />
          </mxGeometry>
        </mxCell>
        <mxCell id="To-I92X-JVq-BLbENrV4-10" value="Modifica" style="rounded=1;whiteSpace=wrap;html=1;arcSize=40;fontColor=#000000;fillColor=none;strokeColor=#000000;" vertex="1" parent="1">
          <mxGeometry x="340" y="280" width="120" height="40" as="geometry" />
        </mxCell>
        <mxCell id="To-I92X-JVq-BLbENrV4-16" value="Download" style="rounded=1;whiteSpace=wrap;html=1;arcSize=40;fontColor=#000000;fillColor=none;strokeColor=#000000;" vertex="1" parent="1">
          <mxGeometry x="480" y="50" width="120" height="40" as="geometry" />
        </mxCell>
        <mxCell id="To-I92X-JVq-BLbENrV4-18" value="Figura specializzata&lt;div&gt;ha un corso da caricare&lt;/div&gt;" style="text;html=1;align=center;verticalAlign=middle;resizable=0;points=[];autosize=1;strokeColor=none;fillColor=none;" vertex="1" parent="1">
          <mxGeometry x="50" y="130" width="150" height="40" as="geometry" />
        </mxCell>
        <mxCell id="To-I92X-JVq-BLbENrV4-19" value="il rifugiato&lt;div&gt;scarica il corso&lt;/div&gt;" style="text;html=1;align=center;verticalAlign=middle;resizable=0;points=[];autosize=1;strokeColor=none;fillColor=none;" vertex="1" parent="1">
          <mxGeometry x="446" y="101" width="100" height="40" as="geometry" />
        </mxCell>
        <mxCell id="To-I92X-JVq-BLbENrV4-21" value="La figura specializzata&lt;div&gt;vuole modificare/aggiungere&lt;/div&gt;&lt;div&gt;materiale al corso&lt;/div&gt;" style="text;html=1;align=center;verticalAlign=middle;resizable=0;points=[];autosize=1;strokeColor=none;fillColor=none;" vertex="1" parent="1">
          <mxGeometry x="373" y="210" width="170" height="60" as="geometry" />
        </mxCell>
      </root>
    </mxGraphModel>
  </diagram>
</mxfile>
